<svg xmlns="http://www.w3.org/2000/svg" xmlns:xlink="http://www.w3.org/1999/xlink"><symbol id="size-12" viewBox="0 0 12 12" fill="none"><path fill="currentColor" fill-rule="evenodd" d="M6.525 4.405 9.3 1.25h1.46L7.173 5.328l3.807 5.422H7.69L5.344 7.41l-2.937 3.34H.947l3.749-4.264L1.019 1.25H4.31zm1.797 5.287h.605L3.671 2.335h-.605z" clip-rule="evenodd" style="fill-opacity:1"/></symbol><symbol id="size-16" viewBox="0 0 16 16" fill="none"><path fill="currentColor" fill-rule="evenodd" d="m8.7 5.874 3.7-4.207h1.946L9.565 7.104l5.076 7.23h-4.388L7.125 9.878 3.21 14.333H1.263L6.26 8.65 1.359 1.667h4.388zm2.396 7.049h.807l-7.008-9.81h-.807z" clip-rule="evenodd" style="fill-opacity:1"/></symbol><symbol id="size-20" viewBox="0 0 20 20" fill="none"><path fill="currentColor" fill-rule="evenodd" d="M10.876 7.342 15.5 2.083h2.432L11.957 8.88l6.345 9.038h-5.485l-3.91-5.568-4.895 5.568H1.58l6.247-7.107-6.128-8.727h5.486zm2.995 8.811h1.008L6.119 3.892H5.111z" clip-rule="evenodd" style="fill-opacity:1"/></symbol><symbol id="size-24" viewBox="0 0 24 24" fill="none"><path fill="currentColor" fill-rule="evenodd" d="M13.05 8.81 18.6 2.5h2.919l-7.171 8.155L21.962 21.5H15.38l-4.693-6.682L4.815 21.5h-2.92l7.498-8.527L2.038 2.5H8.62zm3.595 10.574h1.21L7.343 4.67h-1.21z" clip-rule="evenodd" style="fill-opacity:1"/></symbol><symbol id="size-28" viewBox="0 0 28 28" fill="none"><path fill="currentColor" fill-rule="evenodd" d="M15.226 10.28 21.7 2.916h3.405l-8.366 9.514 8.883 12.652h-7.679l-5.474-7.795-6.852 7.795H2.21l8.747-9.948-8.58-12.218h7.68zm4.193 12.335h1.411L8.566 5.447H7.155z" clip-rule="evenodd" style="fill-opacity:1"/></symbol><symbol id="size-32" viewBox="0 0 32 32" fill="none"><path fill="currentColor" fill-rule="evenodd" d="m17.4 11.747 7.4-8.414h3.891L19.13 14.207l10.152 14.46h-8.776l-6.256-8.91-7.83 8.91H2.525l9.996-11.37L2.717 3.333h8.776zm4.793 14.098h1.613L9.79 6.226H8.177z" clip-rule="evenodd" style="fill-opacity:1"/></symbol></svg>
